<svg xmlns="http://www.w3.org/2000/svg" data-name="Layer 1" viewBox="0 0 32 32" id="image"><path fill="#c6e3ff" d="M30 8v15.1L24 17l-6.68 5.13L11 13 2 23V8a2 2 0 0 1 2-2h24a2 2 0 0 1 2 2Z"></path><path fill="#0478ed" d="M30 24.1a1 1 0 0 1-.71-.3l-5.38-5.47-6 4.59a1 1 0 0 1-1.43-.22l-5.6-8.09-8.14 9.08A1 1 0 0 1 1 23V8a3 3 0 0 1 3-3h24a3 3 0 0 1 3 3v15.1a1 1 0 0 1-1 1ZM11 12h.06a1 1 0 0 1 .76.43l5.72 8.27 5.85-4.49a1 1 0 0 1 1.32.09L29 20.66V8a1 1 0 0 0-1-1H4a1 1 0 0 0-1 1v12.41l7.26-8.08A1 1 0 0 1 11 12Z"></path><path fill="#56aaff" d="M20 26H4a2 2 0 0 1-2-2v-1l9-10 6.32 9.13Z"></path><path fill="#0478ed" d="M20 27H4a3 3 0 0 1-3-3v-1a1 1 0 0 1 .26-.67l9-10a1 1 0 0 1 1.57.1l9 13A1 1 0 0 1 20 27ZM3 23.4v.6a1 1 0 0 0 1 1h14.09L10.9 14.61Z"></path><path fill="#56aaff" d="M30 23.1v.9a2 2 0 0 1-2 2h-8l-2.68-3.87L24 17Z"></path><path fill="#0478ed" d="M28 27h-8a1 1 0 0 1-.82-.43L16.5 22.7a1 1 0 0 1 .21-1.36l6.68-5.13a1 1 0 0 1 1.32.09l6 6.1a1 1 0 0 1 .29.7v.9a3 3 0 0 1-3 3Zm-7.48-2H28a1 1 0 0 0 1-1v-.49l-5.09-5.18-5.22 4Z"></path><circle cx="20" cy="12" r="2" fill="#56aaff"></circle></svg>