<svg xmlns="http://www.w3.org/2000/svg" viewBox="0 0 50 50" id="share"><path d="M32.142 19.153a4.932 4.932 0 0 0 4.927-4.926A4.932 4.932 0 0 0 32.142 9.3a4.932 4.932 0 0 0-4.926 4.927c0 .639.131 1.245.354 1.806l-9.786 5.676a4.908 4.908 0 0 0-3.493-1.459 4.932 4.932 0 0 0-4.926 4.926 4.932 4.932 0 0 0 4.926 4.927c1.385 0 2.634-.58 3.53-1.504l9.704 6.116a4.865 4.865 0 0 0-.308 1.659 4.932 4.932 0 0 0 4.926 4.926 4.932 4.932 0 0 0 4.927-4.926 4.932 4.932 0 0 0-4.927-4.927 4.9 4.9 0 0 0-3.577 1.56l-9.679-6.101c.204-.541.33-1.12.33-1.731 0-.631-.13-1.229-.347-1.784l9.795-5.681a4.897 4.897 0 0 0 3.477 1.443zm0 14.295a2.93 2.93 0 0 1 2.927 2.927 2.93 2.93 0 0 1-2.927 2.926 2.93 2.93 0 0 1-2.926-2.926c0-.538.156-1.036.41-1.469.008-.011.018-.019.026-.031.011-.017.011-.037.021-.054a2.915 2.915 0 0 1 2.469-1.373zM14.29 28.104a2.93 2.93 0 0 1-2.926-2.927 2.93 2.93 0 0 1 2.926-2.926c.954 0 1.795.466 2.33 1.175.014.032.015.066.033.096a.977.977 0 0 0 .17.216c.243.427.394.913.394 1.438a2.9 2.9 0 0 1-.459 1.559l-.007.007c-.004.006-.003.012-.007.018a2.922 2.922 0 0 1-2.454 1.344zm17.852-16.803a2.93 2.93 0 0 1 2.927 2.927 2.93 2.93 0 0 1-2.927 2.926 2.93 2.93 0 0 1-2.926-2.926 2.929 2.929 0 0 1 2.926-2.927z"></path></svg>
